<?xml version="1.0" encoding="utf-8"?>
<svg version="1.1" xmlns:xlink="http://www.w3.org/1999/xlink" width="31px" height="31px" xmlns="http://www.w3.org/2000/svg">
  <g transform="matrix(1 0 0 1 -915 -531 )">
    <path d="M 29.7688802083333 9.48567708333333  C 30.5896267361111 11.3962673611111  31 13.4010416666667  31 15.5  C 31 17.5989583333333  30.5896267361111 19.6037326388889  29.7688802083333 21.5143229166667  C 28.9481336805556 23.4249131944444  27.8448350694444 25.0731336805556  26.458984375 26.458984375  C 25.0731336805556 27.8448350694444  23.4249131944444 28.9481336805556  21.5143229166667 29.7688802083333  C 19.6037326388889 30.5896267361111  17.5989583333333 31  15.5 31  C 13.1857638888889 31  10.9858940972222 30.5122612847222  8.900390625 29.5367838541667  C 6.81488715277778 28.5613064236111  5.03884548611111 27.185546875  3.572265625 25.4095052083333  C 3.47808159722222 25.2749565972222  3.43435329861111 25.1235894097222  3.44108072916667 24.9554036458333  C 3.44780815972222 24.7872178819444  3.50499131944444 24.6493055555556  3.61263020833333 24.5416666666667  L 6.37760416666667 21.7565104166667  C 6.51215277777778 21.6354166666667  6.68033854166667 21.5748697916667  6.88216145833333 21.5748697916667  C 7.09743923611111 21.6017795138889  7.25217013888889 21.6825086805556  7.34635416666667 21.8170572916667  C 8.32855902777778 23.0952690972222  9.53276909722222 24.0842013888889  10.958984375 24.7838541666667  C 12.3851996527778 25.4835069444444  13.8988715277778 25.8333333333333  15.5 25.8333333333333  C 16.8993055555556 25.8333333333333  18.2347005208333 25.5608723958333  19.5061848958333 25.0159505208333  C 20.7776692708333 24.4710286458333  21.8776041666667 23.734375  22.8059895833333 22.8059895833333  C 23.734375 21.8776041666667  24.4710286458333 20.7776692708333  25.0159505208333 19.5061848958333  C 25.5608723958333 18.2347005208333  25.8333333333333 16.8993055555556  25.8333333333333 15.5  C 25.8333333333333 14.1006944444444  25.5608723958333 12.7652994791667  25.0159505208333 11.4938151041667  C 24.4710286458333 10.2223307291667  23.734375 9.12239583333333  22.8059895833333 8.19401041666667  C 21.8776041666667 7.265625  20.7776692708333 6.52897135416667  19.5061848958333 5.98404947916667  C 18.2347005208333 5.43912760416667  16.8993055555556 5.16666666666667  15.5 5.16666666666667  C 14.1814236111111 5.16666666666667  12.9166666666667 5.40549045138889  11.7057291666667 5.88313802083333  C 10.4947916666667 6.36078559027777  9.41840277777778 7.04361979166667  8.4765625 7.931640625  L 11.2415364583333 10.716796875  C 11.6586371527778 11.1204427083333  11.7528211805556 11.5846354166667  11.5240885416667 12.109375  C 11.2953559027778 12.6475694444444  10.8984375 12.9166666666667  10.3333333333333 12.9166666666667  L 1.29166666666667 12.9166666666667  C 0.941840277777778 12.9166666666667  0.639105902777778 12.7888454861111  0.383463541666667 12.533203125  C 0.127821180555556 12.2775607638889  0 11.9748263888889  0 11.625  L 0 2.58333333333333  C 0 2.01822916666667  0.269097222222222 1.62131076388889  0.807291666666667 1.392578125  C 1.33203125 1.16384548611111  1.79622395833333 1.25802951388889  2.19986979166667 1.67513020833333  L 4.82356770833333 4.27864583333333  C 6.26323784722222 2.91970486111111  7.90809461805556 1.86686197916667  9.75813802083333 1.1201171875  C 11.6081814236111 0.373372395833334  13.5221354166667 0  15.5 0  C 17.5989583333333 0  19.6037326388889 0.410373263888889  21.5143229166667 1.23111979166667  C 23.4249131944444 2.05186631944444  25.0731336805556 3.15516493055555  26.458984375 4.541015625  C 27.8448350694444 5.92686631944444  28.9481336805556 7.57508680555555  29.7688802083333 9.48567708333333  Z " fill-rule="nonzero" fill="#f8faf7" stroke="none" transform="matrix(1 0 0 1 915 531 )" />
  </g>
</svg>